2.6Hz3min_grf.mot
version=1
nRows=27
nColumns 19
inDegrees=yes
endheader
time	1_ground_force_vx	1_ground_force_vy	1_ground_force_vz	1_ground_force_px	1_ground_force_py	1_ground_force_pz	1_ground_torque_x	1_ground_torque_y	1_ground_torque_z	2_ground_force_vx	2_ground_force_vy	2_ground_force_vz	2_ground_force_px	2_ground_force_py	2_ground_force_pz	2_ground_torque_x	2_ground_torque_y	2_ground_torque_z
            3.751500	           -3.149382	          931.128300	          -51.257746	           -0.171608	            0.006194	           -0.396038	           -0.007859	            2.323678	           -0.127916	           -1.414636	         1036.327946	           74.136700	           -0.177198	            0.005839	           -0.696345	            0.002788	           -2.042426	           -0.146111
            3.752000	           -3.651840	          926.800057	          -50.862338	           -0.171626	            0.006194	           -0.395928	           -0.009201	            2.334999	           -0.128144	           -1.214692	         1032.830558	           73.936424	           -0.177274	            0.005839	           -0.696353	            0.002273	           -1.932611	           -0.138348
            3.752500	           -3.283345	          921.571016	          -50.564677	           -0.171406	            0.006195	           -0.396183	           -0.009187	            2.578623	           -0.141484	           -1.388340	         1028.964417	           73.453424	           -0.177243	            0.005839	           -0.696329	            0.002401	           -1.779340	           -0.127020
            3.753000	           -3.738999	          916.340169	          -49.852260	           -0.171258	            0.006196	           -0.396361	           -0.010710	            2.624783	           -0.142798	           -1.231257	         1024.361893	           73.249225	           -0.177102	            0.005839	           -0.696225	            0.002208	           -1.837221	           -0.131375
            3.753500	           -4.515946	          912.010890	          -49.226894	           -0.171189	            0.006196	           -0.396468	           -0.012767	            2.578284	           -0.139166	           -1.213415	         1019.390748	           72.996837	           -0.177016	            0.005839	           -0.696274	            0.002229	           -1.872388	           -0.134079
            3.754000	           -4.925808	          907.681091	          -48.464867	           -0.171230	            0.006196	           -0.396340	           -0.013452	            2.478796	           -0.132353	           -1.480057	         1015.339733	           72.607076	           -0.176960	            0.005839	           -0.696206	            0.002781	           -1.907524	           -0.136407
            3.754500	           -5.291292	          903.894428	          -48.250913	           -0.170995	            0.006196	           -0.396277	           -0.013788	            2.355363	           -0.125732	           -1.792241	         1010.920556	           72.169101	           -0.176814	            0.005840	           -0.696125	            0.003326	           -1.875925	           -0.133921
            3.755000	           -5.930383	          899.024016	          -47.536496	           -0.170947	            0.006196	           -0.396444	           -0.014853	            2.251681	           -0.119059	           -2.335494	         1005.580819	           71.399435	           -0.176677	            0.005840	           -0.696010	            0.004121	           -1.774381	           -0.125987
            3.755500	           -5.883242	          892.534264	          -47.518577	           -0.170741	            0.006197	           -0.396607	           -0.015011	            2.277262	           -0.121242	           -2.458805	         1000.792866	           71.288556	           -0.176650	            0.005840	           -0.695970	            0.003879	           -1.578903	           -0.112469
            3.756000	           -5.836561	          888.568170	          -47.489844	           -0.170768	            0.006197	           -0.396624	           -0.015817	            2.408079	           -0.128701	           -1.975184	          996.560478	           70.897819	           -0.176712	            0.005840	           -0.696045	            0.003250	           -1.640006	           -0.116674
            3.756500	           -6.291922	          882.976337	          -46.687261	           -0.170622	            0.006197	           -0.396632	           -0.017936	            2.516979	           -0.133085	           -1.721743	          991.221730	           70.690952	           -0.176510	            0.005840	           -0.695873	            0.002801	           -1.612681	           -0.115012
            3.757000	           -6.656102	          878.286349	          -46.018606	           -0.170501	            0.006198	           -0.396777	           -0.018886	            2.492054	           -0.130573	           -2.076686	          985.696581	           70.483688	           -0.176347	            0.005841	           -0.695957	            0.003487	           -1.654993	           -0.118343
            3.757500	           -7.157761	          872.695293	          -45.399333	           -0.170501	            0.006198	           -0.396771	           -0.018972	            2.313180	           -0.120336	           -1.824635	          980.726494	           70.137343	           -0.176213	            0.005841	           -0.695834	            0.003192	           -1.715801	           -0.122707
            3.758000	           -7.933762	          866.922709	          -44.505015	           -0.170174	            0.006198	           -0.396803	           -0.020033	            2.189018	           -0.112377	           -1.948734	          976.123625	           69.745551	           -0.176105	            0.005841	           -0.695761	            0.003396	           -1.700929	           -0.121534
            3.758500	           -8.297877	          861.872250	          -43.837913	           -0.170220	            0.006198	           -0.396924	           -0.020560	            2.135520	           -0.108620	           -2.164436	          970.967220	           69.586477	           -0.176134	            0.005841	           -0.695744	            0.003236	           -1.451693	           -0.104039
            3.759000	           -8.342927	          856.284429	          -43.953473	           -0.170134	            0.006199	           -0.397000	           -0.021452	            2.201722	           -0.113015	           -2.522120	          966.179304	           69.194128	           -0.176121	            0.005841	           -0.695915	            0.003362	           -1.287754	           -0.092224
            3.759500	           -8.295821	          851.236410	          -43.837658	           -0.169993	            0.006199	           -0.396997	           -0.022351	            2.293466	           -0.118111	           -2.454105	          960.287563	           68.938434	           -0.176075	            0.005841	           -0.695656	            0.003165	           -1.238416	           -0.088905
            3.760000	           -8.476382	          844.563761	          -43.223820	           -0.169875	            0.006199	           -0.397131	           -0.023842	            2.375527	           -0.121577	           -1.731582	          954.766975	           68.542998	           -0.175857	            0.005841	           -0.695626	            0.002520	           -1.389634	           -0.099762
            3.760500	           -8.931922	          839.332595	          -42.465552	           -0.169731	            0.006199	           -0.397104	           -0.024849	            2.335072	           -0.118142	           -1.666246	          949.611964	           68.243012	           -0.175768	            0.005842	           -0.695767	            0.002467	           -1.405954	           -0.101038
            3.761000	           -9.067001	          834.642970	          -41.843324	           -0.169817	            0.006199	           -0.397125	           -0.024133	            2.221478	           -0.111370	           -1.359974	          942.616058	           68.030212	           -0.175645	            0.005842	           -0.695501	            0.002103	           -1.457316	           -0.105177
            3.761500	           -9.705845	          827.789740	          -41.183262	           -0.169519	            0.006200	           -0.397290	           -0.024016	            2.048230	           -0.101901	           -1.340946	          937.277803	           67.448020	           -0.175707	            0.005841	           -0.695515	            0.002028	           -1.417580	           -0.102011
            3.762000	          -10.023317	          821.476478	          -40.292401	           -0.169413	            0.006201	           -0.397489	           -0.025069	            2.054600	           -0.100776	           -1.556024	          931.937409	           67.194424	           -0.175555	            0.005842	           -0.695590	            0.002145	           -1.284651	           -0.092626
            3.762500	           -9.792594	          815.707234	          -40.134281	           -0.169285	            0.006201	           -0.397544	           -0.026124	            2.176099	           -0.107068	           -1.627998	          925.861919	           66.703500	           -0.175438	            0.005842	           -0.695393	            0.001988	           -1.130615	           -0.081455
            3.763000	           -9.974376	          810.118010	          -39.928512	           -0.169292	            0.006201	           -0.397565	           -0.026995	            2.192532	           -0.108064	           -1.562038	          920.523163	           66.309001	           -0.175380	            0.005842	           -0.695407	            0.001799	           -1.060226	           -0.076372
            3.763500	           -9.834428	          804.347176	          -39.403317	           -0.169168	            0.006201	           -0.397415	           -0.028335	            2.317483	           -0.113529	           -1.257300	          913.897090	           65.628233	           -0.175398	            0.005842	           -0.695329	            0.001513	           -1.099915	           -0.078986
            3.764000	           -9.786637	          798.036541	          -39.109489	           -0.168974	            0.006202	           -0.397721	           -0.026688	            2.176253	           -0.106652	           -1.048592	          908.004686	           65.700984	           -0.175230	            0.005843	           -0.695363	            0.001358	           -1.176106	           -0.085100
            3.764500	          -10.287693	          792.264206	          -38.261714	           -0.168993	            0.006201	           -0.397574	           -0.026524	            2.042614	           -0.098646	           -0.418440	          902.115478	           65.304274	           -0.175146	            0.005843	           -0.695418	            0.000574	           -1.238523	           -0.089657
